<?xml version="1.0" standalone="no"?>
<!DOCTYPE svg PUBLIC "-//W3C//DTD SVG 20010904//EN"
 "http://www.w3.org/TR/2001/REC-SVG-20010904/DTD/svg10.dtd">
<svg version="1.0" xmlns="http://www.w3.org/2000/svg"
 width="500.000000pt" height="499.000000pt" viewBox="0 0 500.000000 499.000000"
 preserveAspectRatio="xMidYMid meet">

<g transform="translate(0.000000,499.000000) scale(0.100000,-0.100000)"
fill="#000000" stroke="none">
<path d="M3400 4485 c-311 -57 -574 -253 -715 -535 -55 -110 -68 -154 -104
-336 -33 -165 -63 -258 -123 -379 -83 -166 -234 -350 -378 -460 -397 -304
-953 -360 -1389 -140 -39 19 -73 35 -75 35 -3 0 -12 -7 -20 -16 -14 -14 -16
-126 -16 -1085 l0 -1069 1000 0 1000 0 0 788 c0 506 4 803 11 832 41 177 208
337 388 370 29 6 194 10 366 10 400 0 483 13 665 104 202 101 351 250 450 446
244 486 51 1086 -430 1334 -202 105 -418 139 -630 101z"/>
</g>
</svg>
